<svg xmlns="http://www.w3.org/2000/svg" viewBox="0 0 105.7 73.3"><path d="M8.7 63v-4.5l-1.8 3.8H6l-1.8-3.8V63H2.8v-6.8h1.7l1.9 4.1 1.9-4.1H10V63H8.7zm8.8-2.7c0 1.8-1.2 2.9-3 2.9-1.9 0-3.1-1.1-3.1-2.9v-3.9H13v3.9c0 1 .6 1.5 1.5 1.5s1.4-.6 1.4-1.5v-3.9h1.6v3.9zm6.4-3.3l-.6 1.3c-.7-.4-1.5-.7-2.1-.7-.5 0-.9.2-.9.5 0 1.2 3.6.5 3.6 3 0 1.3-1.1 2-2.6 2-1.1 0-2.1-.4-3-1.1l.6-1.2c.7.6 1.7 1 2.4 1 .6 0 1-.2 1-.6 0-1.3-3.6-.5-3.6-2.9 0-1.2 1-2 2.6-2 .9 0 1.8.2 2.6.7zm1.1 6v-6.8h1.6V63H25zm5.5-2.8l-1 1.1V63h-1.6v-6.8h1.6v3.1l2.9-3.1h1.8L31.6 59l2.8 3.9h-1.9l-2-2.7zm7 0l-1 1.1V63h-1.6v-6.8h1.6v3.1l2.9-3.1h1.8L38.6 59l2.8 3.9h-1.9l-2-2.7zm7.7-4c1.5 0 2.4.6 2.4 1.7 0 .7-.5 1.3-1.2 1.5.8.1 1.4.9 1.4 1.7 0 1.2-1 1.9-2.6 1.9H42v-6.8h3.2zm-1.7 2.7h1.4c.5 0 .9-.3.9-.7s-.3-.7-.9-.7h-1.4v1.4zm0 2.9H45c.7 0 1.1-.3 1.1-.8s-.4-.8-1.1-.8h-1.5v1.6zm8.4-.6h-1.5V63h-1.6v-6.8h3c1.8 0 2.9.9 2.9 2.4 0 1-.5 1.8-1.3 2.2L55 63h-2.1l-1-1.8zm-.3-1.4c.8 0 1.3-.4 1.3-1.1 0-.8-.5-1.1-1.3-1.1h-1.4v2.3h1.4zm7.5 3.2h-1.6v-2.1l-2.6-4.6h1.6l1.8 3 1.8-3h1.6l-2.5 4.6V63zm8.5-3.4v2.6c-.8.6-1.8.9-2.8.9-2.1 0-3.7-1.5-3.7-3.4s1.6-3.4 3.8-3.4c1 0 2 .3 2.8 1l-.9 1.1c-.5-.5-1.2-.7-1.9-.7-1.2 0-2.1.9-2.2 2 0 1.2.9 2.1 2 2.2h.1c.5 0 .9-.1 1.4-.4v-1.8h1.4zm7.3 0v2.6c-.9.5-1.8.8-2.8.8-2.1 0-3.7-1.5-3.7-3.4s1.6-3.4 3.8-3.4c1 0 2 .3 2.8 1l-1 1.1c-.5-.5-1.2-.7-1.9-.7-1.2 0-2.1.9-2.2 2 0 1.2.9 2.1 2 2.2h.1c.5 0 .9-.1 1.4-.4v-1.8h1.5zm2.7-2.1v1.4h3.2v1.4h-3.2v1.6h3.6V63h-5v-6.8h5v1.4h-3.6zm8 3.7h-1.5V63h-1.6v-6.8h3c1.8 0 2.9.9 2.9 2.4 0 1-.5 1.8-1.3 2.2l1.5 2.2h-2.1l-.9-1.8zm-.3-1.4c.8 0 1.3-.4 1.3-1.1 0-.8-.5-1.1-1.3-1.1h-1.4v2.3h1.4zm4 3.2v-6.8h1.6V63h-1.6zm4.8-5.5v1.4h3.2v1.4h-3.2v1.6h3.6V63h-5.2v-6.8h5v1.4h-3.4zm7.6 0V63h-1.6v-5.4h-2v-1.4h5.6v1.4h-2z"/><path d="M44 43.7c-.6.3-1-.9-1-.9V29.1h-4.3v23.2h5.9v-8.6H44zm-9.6-14.6v13.7s-.8 1.1-1.4.9h-.8v8.6h5.9V29.1h-3.7zm-3.2 14.6c-.6 0-1.1-.5-1.1-1.1V29.1h-4.3v13.5c0 .6-.5 1.1-1.1 1.1h-1v8.6h8.1v-8.6h-.6zm32.4-14.6v13.7s-.2 1.1-.8.9H62v8.6h5.4V29.1h-3.8zm9.8 14.6c-.6.3-1.1-.9-1.1-.9V29.1H68v23.2h5.9v-8.6h-.5zm-20.6 0c-.6 0-1.1-.5-1.1-1.1V29.1h-4.3v13.5c0 .6-.5 1.1-1.1 1.1h-1v8.6h8.1v-8.6h-.6zm32.4-1.2c0 .6-.5 1.1-1.1 1.1h-1v8.6h2.1c.9 0 1.7-.7 1.7-1.7V29.1h-1.6v13.4zm-24.3 1.2c-.6 0-1.1-.5-1.1-1.1V29.1H56v13.5c0 .6-.5 1.1-1.1 1.1h-1v8.6h7.6v-8.6h-.6zm-38.5 0c-.6.3-1-.9-1-.9V29.1h-2.2v21.6c0 .9.7 1.7 1.7 1.7H23v-8.6h-.6zm59.6 0c-.6 0-1.1-.5-1.1-1.1V29.1h-4.3v13.5c0 .6-.5 1.1-1.1 1.1h-1v8.6h8.1v-8.6H82z" fill="none"/><path d="M18.2 28.5v22.4c0 1.7 1.3 3 3 3h64.2c1.7 0 3-1.3 3-3V28.5H18.2zM23 52.3h-2.1c-.9 0-1.7-.7-1.7-1.7V29.1h2.2v13.5c0 .6.5 1.1 1.1 1.1h.5v8.6zm8.7 0h-8.1v-8.7h1c.6 0 1.1-.5 1.1-1.1V29.1H30v13.5c0 .6.5 1.1 1.1 1.1h.5v8.6zm6.5 0h-5.9v-8.7h1c.6 0 1.1-.5 1.1-1.1V29.1h3.8v23.2zm6.5 0h-5.9V29.1H43v13.5c0 .6.5 1.1 1.1 1.1h.5v8.6zm8.6 0h-8.1v-8.7h1c.6 0 1.1-.5 1.1-1.1V29.1h4.3v13.5c0 .6.5 1.1 1.1 1.1h.5v8.6zm8.1 0h-7.6v-8.7h1c.6 0 1.1-.5 1.1-1.1V29.1h3.8v13.5c0 .6.5 1.1 1.1 1.1h.5v8.6zm6 0H62v-8.7h1c.6 0 1.1-.5 1.1-1.1V29.1h3.2v23.2zm6.4 0h-5.9V29.1h4.3v13.5c0 .6.5 1.1 1.1 1.1h.5v8.6zm.6 0v-8.7h1c.6 0 1.1-.5 1.1-1.1V29.1h4.3v13.5c0 .6.5 1.1 1.1 1.1h.5v8.7h-8zm12.4-1.6c0 .9-.7 1.7-1.7 1.7H83v-8.7h1c.6 0 1.1-.5 1.1-1.1V29.1h1.6v21.6z"/><path d="M38.2 29.1h.5v.5h-.5zm29.2 0h.5v.5h-.5z" fill="#fff"/><path d="M21.4 21.5h2.7V28h-2.7zm6-6.5h-2.7v13h2.7zm3.7 1.1v-7h-2.7v18.4h2.7zm3.3 2.2v-1.7h-2.7v10.9h2.7zm.5.5h2.7v8.6h-2.7zm6-12.4h-2.7V28h2.7zm-20 7.5h-2.7v13.6h2.7v-7.1zm27 1.9v-10h-2.7v21.7h2.7zm.5.8h2.7v11.3h-2.7zm3.3-7.5h2.7v18.4h-2.7zm3.2 1.1h2.7V28h-2.7zm6-4.5v-2h-2.7v23.8h2.7zm3.8 4.8V6.4H62V28h2.7zm3.2 5.8v-5.1h-2.7V28h2.7zm.5.3h2.7v11.3h-2.7zm6-2.1V9.1h-2.7v18.4h2.7zm3.2 2.1V15h-2.7v12.5h2.7zm1.1.6h2.7v10.3h-2.7zm5.9-2.7v-3.3h-2.7v16.3h2.7zm.6.5h2.7v12.4h-2.7zm-43.8-1.1h2.7v13.5h-2.7z"/></svg>