<svg xmlns="http://www.w3.org/2000/svg" width="101" height="103"><style>.shp0{fill:#fff}</style><g id="Layer"><path id="Layer" class="shp0" d="M63.32 44.73l.91-.41 6.04 13.62-.92.41-6.03-13.62zm-16.67-5.09l.73-.68 5.57 5.88-.73.69-5.57-5.89z"/><path id="Layer" class="shp0" d="M66 71.2l3.04-14.79.98.2-3.04 14.79-.98-.2z"/><path id="Layer" fill-rule="evenodd" class="shp0" d="M79.8 100H20.7C9.5 100 .3 90.8.3 79.6V20.4C.3 9.2 9.5 0 20.7 0h59.1c11.2 0 20.4 9.2 20.4 20.4v59.1c0 11.3-9.1 20.5-20.4 20.5zM20.7 5C12.2 5 5.3 11.9 5.3 20.4v59.1c0 8.5 6.9 15.4 15.4 15.4h59.1c8.5 0 15.4-6.9 15.4-15.4V20.4C95.2 11.9 88.3 5 79.8 5H20.7z"/><path id="Layer" class="shp0" d="M68.5 91.7H26.1c-5.2 0-9.5-4.2-9.5-9.5H78c0 5.3-4.3 9.5-9.5 9.5zm10.7-12.2H15.3c-1.2 0-2.2-1-2.2-2.2 0-1.2 1-2.2 2.2-2.2h63.9c1.2 0 2.2 1 2.2 2.2 0 1.2-1 2.2-2.2 2.2zm17-61.5h-64l-11.3-3.9v-3.8h59.9L96.2 18zm-55 15.6H34V20.2h10.1l-2.9 13.4z"/><path id="Layer" class="shp0" d="M83.6 11.8h14.6v5.9H83.6v-5.9zm-68 58.9H79v1H15.6v-1zm3-13.9H76v1H18.6v-1z"/><path id="Layer" class="shp0" d="M16.07 71l2.14-14.24.99.15-2.14 14.24-.99-.15zm59.42-14.46l.99-.13 2.04 14.76-.99.13-2.04-14.76z"/><path id="Layer" class="shp0" d="M18.21 56.88l15.2-12.85.64.77-15.19 12.84-.65-.76zm45.23-11.97l.7-.71 12.24 11.93-.7.72-12.24-11.94z"/><path id="Layer" class="shp0" d="M33.79 44.88v-1l30 .15v1l-30-.15zm-9.74 12.46l.94-.35 5.17 14.08-.94.35-5.17-14.08z"/><path id="Layer" class="shp0" d="M16.89 71.01l7.23-14.16.89.46-7.23 14.16-.89-.46zm12.43-.02l8.64-14.76.86.51-8.64 14.75-.86-.5z"/><path id="Layer" class="shp0" d="M37.96 56.78l.85-.53 9.26 14.73-.85.54-9.26-14.74zm18.01-.04l.81-.59 10.19 14.11-.81.58-10.19-14.1z"/><path id="Layer" class="shp0" d="M48 71.05l7.98-14.79.88.48-7.98 14.78-.88-.47zm21.06-14.36l.88-.47L77.72 71l-.89.47-7.77-14.78z"/><path id="Layer" class="shp0" d="M52.31 45.65l.55-.83L69.74 56.1l-.55.83-16.88-11.28z"/><path id="Layer" class="shp0" d="M52.13 45.37l.95-.32 3.8 11.28-.95.32-3.8-11.28z"/><path id="Layer" class="shp0" d="M38.04 56.05l14.25-11.32.62.78-14.25 11.32-.62-.78z"/><path id="Layer" class="shp0" d="M33.36 44.57l.93-.35 4.55 12.07-.94.36-4.54-12.08z"/><path id="Layer" class="shp0" d="M24.16 56.85l9.23-12.7.81.59-9.23 12.7-.81-.59z"/><path id="Layer" class="shp0" d="M33.59 43.92l13.86-5.19.35.94-13.86 5.19-.35-.94z"/><path id="Layer" class="shp0" d="M47.46 39.69l.32-.95 16.14 5.33-.31.95-16.15-5.33zM95.7 58.7c-3.3 0-6-2.7-6-6v-8.8c0-3.3 2.7-6 6-6 3.4-.1 3.4 20.8 0 20.8zm-67.1 43.8h-9.7c-.4 0-.7-.3-.7-.7v-.3h11.4c0 .5-.4 1-1 1zm51.8 0h-9.7c-.4 0-.7-.3-.7-.7v-.3h11.4c0 .5-.5 1-1 1zm-48.2-67H43v1H32.2v-1zm4.9 1.8h1v4.1h-1v-4.1z"/></g></svg>