<svg version="1.1" id="Шар_1" xmlns="http://www.w3.org/2000/svg" x="0" y="0" viewBox="0 0 175 165" xml:space="preserve"><style>.st0{fill:#fff}</style><path transform="rotate(-23.893 103.76 81.357)" class="st0" d="M103.3 73.9h1v14.9h-1z"/><path transform="rotate(-43.448 86.788 72.248)" class="st0" d="M86.3 68.2h1v8.1h-1z"/><path transform="rotate(-78.381 104.98 93.866)" class="st0" d="M97.4 93.4h15.1v1H97.4z"/><path class="st0" d="M116.8 130H57.7c-11.2 0-20.4-9.2-20.4-20.4V50.4c0-11.2 9.2-20.4 20.4-20.4h59.1c11.2 0 20.4 9.2 20.4 20.4v59.1c0 11.3-9.1 20.5-20.4 20.5zM57.7 35c-8.5 0-15.4 6.9-15.4 15.4v59.1c0 8.5 6.9 15.4 15.4 15.4h59.1c8.5 0 15.4-6.9 15.4-15.4V50.4c0-8.5-6.9-15.4-15.4-15.4H57.7z"/><path class="st0" d="M105.5 121.7H63.1c-5.2 0-9.5-4.2-9.5-9.5H115c0 5.3-4.3 9.5-9.5 9.5zm10.7-12.2H52.3c-1.2 0-2.2-1-2.2-2.2 0-1.2 1-2.2 2.2-2.2h63.9c1.2 0 2.2 1 2.2 2.2 0 1.2-1 2.2-2.2 2.2zm17-61.5h-64l-11.3-3.9v-3.8h59.9zm-55 15.6H71V50.2h10.1z"/><path class="st0" d="M120.6 41.8h14.6v5.9h-14.6zm-68 58.9H116v1H52.6zm3-13.9H113v1H55.6z"/><path transform="rotate(-81.466 54.595 93.958)" class="st0" d="M47.4 93.5h14.4v1H47.4z"/><path transform="rotate(-7.874 114.02 93.868)" class="st0" d="M113.5 86.4h1v14.9h-1z"/><path transform="rotate(-40.205 63.199 80.84)" class="st0" d="M53.2 80.3h19.9v1H53.2z"/><path transform="rotate(-45.733 106.872 80.524)" class="st0" d="M106.4 72h1v17.1h-1z"/><path transform="rotate(-89.71 85.773 74.484)" class="st0" d="M85.3 59.5h1v30h-1z"/><path transform="rotate(-20.149 64.115 94.188)" class="st0" d="M63.6 86.7h1v15h-1z"/><path transform="rotate(-62.935 57.917 94.179)" class="st0" d="M50 93.7h15.9v1H50z"/><path transform="rotate(-59.63 71.023 93.864)" class="st0" d="M62.5 93.4h17.1v1H62.5z"/><path transform="rotate(-32.145 79.98 93.865)" class="st0" d="M79.5 85.2h1v17.4h-1z"/><path transform="rotate(-35.845 98.482 93.548)" class="st0" d="M98 84.8h1v17.4h-1z"/><path transform="rotate(-61.659 89.413 93.868)" class="st0" d="M81 93.4h16.8v1H81z"/><path transform="rotate(-27.748 110.389 93.87)" class="st0" d="M109.9 85.5h1v16.7h-1z"/><path transform="rotate(-56.262 98.038 80.838)" class="st0" d="M97.5 70.7h1V91h-1z"/><path transform="rotate(-18.63 91.492 80.84)" class="st0" d="M91 74.9h1v11.9h-1z"/><path transform="rotate(-38.459 82.45 80.834)" class="st0" d="M73.4 80.3h18.2v1H73.4z"/><path transform="rotate(-20.642 73.054 80.448)" class="st0" d="M72.6 74h1v12.9h-1z"/><path transform="rotate(-53.978 66.163 80.766)" class="st0" d="M58.3 80.3H74v1H58.3z"/><path transform="rotate(-20.528 77.688 71.823)" class="st0" d="M70.3 71.3h14.8v1H70.3z"/><path transform="rotate(-71.736 92.684 71.897)" class="st0" d="M92.2 63.4h1v17h-1z"/><path class="st0" d="M132.7 88.7c-3.3 0-6-2.7-6-6v-8.8c0-3.3 2.7-6 6-6 3.4-.1 3.4 20.8 0 20.8zm-67.1 43.8h-9.7c-.4 0-.7-.3-.7-.7v-.3h11.4c0 .5-.4 1-1 1zm51.8 0h-9.7c-.4 0-.7-.3-.7-.7v-.3h11.4c0 .5-.5 1-1 1zm-48.2-67H80v1H69.2zm4.9 1.8h1v4.1h-1z"/></svg>