<svg xmlns="http://www.w3.org/2000/svg" width="133" height="129"><style/><path id="Layer" fill-rule="evenodd" d="M49.8 88.4l-2.7 7.8 64.9-.4c2.7 0 5 2.2 5 5 0 2.7-2.2 5-5 5h-3.6c2.5 2.4 4.1 5.7 4.1 9.4 0 7.2-6.1 13.1-13.6 13.1s-13.6-5.9-13.6-13.1c0-3.7 1.5-6.9 4-9.3l-26.3.2c2.3 2.4 3.8 5.6 3.8 9.1 0 7.2-6.1 13.1-13.6 13.1s-13.6-5.9-13.6-13.1c0-3.4 1.4-6.6 3.7-8.9h-3.5c-1.6 0-3.2-.8-4.1-2.1-1-1.4-1.2-3.1-.7-4.6l3.9-11.2c-2-.3-3.7-1.9-4.1-4l-12-66-19.6-8.1C.7 9.3-.6 6.3.5 3.8c1-2.5 4-3.7 6.5-2.7l22.1 9.2c1.6.6 2.7 2 3 3.7l11.7 64.4h2.1l59.3-.4L121 33.8l-74.1-.4c-2.8 0-5-2.2-5-5s2.2-5 5-5l81.1.5c1.7 0 3.2.8 4.1 2.1.9 1.3 1.1 3 .6 4.5l-19.2 54.2c-.7 1.9-2.6 3.3-4.7 3.3l-59 .4zm56.5 26.8c0-3.9-3.4-7.1-7.6-7.1-4.2 0-7.6 3.2-7.6 7.1 0 3.9 3.4 7.1 7.6 7.1 4.1 0 7.5-3.2 7.6-7.1zm-60.8 0c0 3.9 3.4 7.1 7.6 7.1 4.2 0 7.6-3.2 7.6-7.1 0-3.9-3.4-7.1-7.6-7.1-4.2 0-7.6 3.2-7.6 7.1z" fill="#0f4c5c"/></svg>