<svg version="1.1" id="Шар_1" xmlns="http://www.w3.org/2000/svg" x="0" y="0" viewBox="0 0 175 165" xml:space="preserve"><style>.st0{fill:#fff}</style><path class="st0" d="M124.8 60.5c-2.5.3-4.5 2-5.7 4.2-.2.5-3.7 10.3-3.7 10.3H59.7s-4-10.1-4.2-10.6c-1.1-2.3-3.2-3.9-5.7-4.2L53 38.3h.1c.5-3.6 3-6.5 6.5-7.5.1 0 .2 0 .3-.1.6-.2 1.2 0 1.2 0 5.4 1.8 19.9 3.1 26.6 3.1 6.6 0 12.7-.2 18-2 0 0 2.7-.9 5.1-1.2 1.6-.2 3.2-.1 3.9-.1h.4c3.2.9 5.7 3.5 6.4 6.8v.5l3.3 22.7z"/><path class="st0" d="M131.2 70.3l-1.6 5.5s-1.4 4.9-1.4 5c-.2.6-.7 1.7-1.7 2.8-1.4 1.6-3.4 2.6-5.2 3.3-2.2.8-4.4 1.4-5.4 1.4h-2.4l6.3 42.3c.2 1.7-.9 3.2-2.6 3.5l-1.6.2c-1.7.2-3.2-.9-3.5-2.6l-6.5-43.5H70.3l-6.5 43.5c-.2 1.6-1.8 2.8-3.5 2.6l-1.6-.2c-1.6-.2-2.8-1.8-2.6-3.5l6.3-42.3h-3.5.1-.4c-1.1-.1-3-.6-5-1.4-1.8-.7-3.8-1.8-5.2-3.4-1-1.1-1.4-2.2-1.7-2.8v-.3l-3-10.1c0-.2-.1-.4-.1-.5-.2-2.5 1.7-4.7 4.4-4.9 2.6-.3 4.9 1.4 5.3 3.8l.9 3.2.3 1c.6 1.6 1.7 4.1 1.7 4.3.1.8 1.2 1.8 2.1 2h58.2c.9-.2 2-1.2 2.1-2 0-.2 1.1-2.7 1.7-4.3l.3-1 .9-3.2c.3-2.4 2.7-4.1 5.3-3.8.2 0 .3 0 .5.1 2.4.5 4.1 2.6 3.9 4.9.1.1.1.2 0 .4z"/></svg>