<svg xmlns="http://www.w3.org/2000/svg" width="115" height="115"><style>.shp0{fill:#000}</style><g id="Layer"><path id="Layer" fill-rule="evenodd" class="shp0" d="M57.5 114.7C26 114.7.3 89 .3 57.5.3 26 26 .3 57.5.3 89 .3 114.7 26 114.7 57.5c0 31.5-25.7 57.2-57.2 57.2zm0-102c-24.7 0-44.8 20.1-44.8 44.8 0 24.7 20.1 44.8 44.8 44.8 24.7 0 44.8-20.1 44.8-44.8 0-24.7-20.1-44.8-44.8-44.8z"/><path id="Layer" class="shp0" d="M57.4 74.8c-.9 0-1.9-.2-2.8-.7-2.1-1.1-3.5-3.2-3.4-5.6l.3-48c0-3.4 2.8-6.2 6.2-6.2 3.4 0 6.2 2.8 6.2 6.2L63.7 56l16.5-12.6c2.7-2.1 6.6-1.6 8.7 1.2 2.1 2.7 1.6 6.6-1.2 8.7L61.2 73.5c-1.1.9-2.4 1.3-3.8 1.3z"/></g></svg>