<svg xmlns="http://www.w3.org/2000/svg" width="115" height="111"><style>.shp0{fill:#000}</style><g id="Layer"><path id="Layer" fill-rule="evenodd" class="shp0" d="M115.1 25.3V96c0 7.9-6.5 14.4-14.4 14.4H14.6C6.7 110.4.2 103.9.2 96V25.3c0-7.9 6.5-14.4 14.4-14.4h5.8c-.5 1.1-.7 2.3-.7 3.5 0 5.3 4.3 9.6 9.6 9.6s9.6-4.3 9.6-9.6c0-1.2-.3-2.4-.7-3.5h39c-.5 1.1-.7 2.3-.7 3.5 0 5.3 4.3 9.6 9.6 9.6s9.6-4.3 9.6-9.6c0-1.2-.3-2.4-.7-3.5h5.6c7.9 0 14.3 6.5 14.5 14.4zm-11.3 19.6H9.3V99h94.5V44.9z"/><path id="Layer" class="shp0" d="M24 .6h10v19.5H24V.6zm57.4 0h10v19.5h-10V.6zm-66 63.8h14.5v9.5H15.4v-9.5zm0 15.1h14.5V89H15.4v-9.5zm24 0h14.5V89H39.4v-9.5zm22.3 0h14.5V89H61.7v-9.5zm22.6 0h14.5V89H84.3v-9.5zM39.4 64.7h14.5v9.5H39.4v-9.5zm22.3 0h14.5v9.5H61.7v-9.5zm22.6 0h14.5v9.5H84.3v-9.5zM39.4 49.9h14.5v9.5H39.4v-9.5zm22.3 0h14.5v9.5H61.7v-9.5zm22.6 0h14.5v9.5H84.3v-9.5z"/></g></svg>