<svg xmlns="http://www.w3.org/2000/svg" width="139" height="137"><style>.shp0{fill:#000}</style><g id="Layer"><path id="Layer" class="shp0" d="M69.9 81.2c-6.97 0-12.6-5.41-12.6-12.1 0-6.69 5.63-12.1 12.6-12.1s12.6 5.41 12.6 12.1c0 6.69-5.63 12.1-12.6 12.1z"/><path id="Layer" fill-rule="evenodd" class="shp0" d="M104.4 53.1v32.6c0 10.1-8.2 18.2-18.2 18.2H52.6c-10.1 0-18.2-8.2-18.2-18.2V53.1c0-10.1 8.2-18.2 18.2-18.2h33.5c10.1 0 18.2 8.1 18.3 18.2zm-13 17c0-11.6-9.6-21.1-21.5-21.1s-21.5 9.5-21.5 21.1c0 11.6 9.6 21.1 21.5 21.1 11.8 0 21.5-9.5 21.5-21.1zm4.9-21.8c0-2.5-2-4.5-4.5-4.5s-4.5 2-4.5 4.5 2 4.5 4.5 4.5 4.5-2 4.5-4.5z"/><path id="Layer" fill-rule="evenodd" class="shp0" d="M138.7 33.1v71.7c0 17.7-14.5 32.2-32.2 32.2H33.1C15.4 137 .9 122.5.9 104.8V33.1C.9 15.4 15.4.9 33.1.9h73.4c17.7 0 32.1 14.5 32.2 32.2zm-25.3 51.5V52.1c0-15-12.2-27.2-27.2-27.2H52.6c-15 0-27.2 12.2-27.2 27.2v32.5c0 15 12.2 27.2 27.2 27.2h33.5c15 0 27.2-12.2 27.2-27.2h.1z"/></g></svg>