<svg xmlns="http://www.w3.org/2000/svg" width="123" height="87"><style/><path id="Layer" fill-rule="evenodd" d="M122.7 16.7v53.7c0 2.9-.8 5.7-2.2 8-1 1.8-2.4 3.3-4.1 4.6-2.6 2-5.9 3.2-9.5 3.2H16.1c-3.7 0-7.1-1.3-9.8-3.4-1.7-1.2-3.1-2.9-4.1-4.7-1.3-2.3-2-4.9-2-7.7V16.7c0-3.4 1.1-6.5 2.9-9.1 1.2-1.7 2.7-3.2 4.5-4.3C10.1 1.7 13 .8 16.1.8h90.8c3.3 0 6.3.9 8.8 2.6 1.7 1.2 3.2 2.7 4.4 4.4 1.7 2.5 2.7 5.6 2.6 8.9zM12.2 7.8L42.3 38l4.4 4.5 5.3 5.3c5.3 5.3 14 5.3 19.3 0l4.9-4.9 4.4-4.4L111.1 8c-1.3-.7-2.7-1-4.2-1H16.1c-1.4 0-2.7.3-3.9.8zM6.9 73.4l31-31L7.6 12.1c-.8 1.4-1.2 2.9-1.2 4.6v53.6c0 1.1.2 2.1.5 3.1zm105.2 5.1L80.8 47.2l-4.9 4.9c-3.9 3.9-9 5.8-14.1 5.8S51.6 56 47.7 52.1l-5.3-5.3-31.6 31.6c1.5 1 3.3 1.6 5.3 1.6h90.8c1.9 0 3.6-.5 5.2-1.5zm4.5-61.9c0-1.5-.3-3-1-4.3L85.1 42.8 116 73.7c.4-1.1.6-2.2.6-3.4V16.6z" fill="#000"/></svg>