<svg version="1.1" id="Шар_1" xmlns="http://www.w3.org/2000/svg" x="0" y="0" viewBox="0 0 175 165" xml:space="preserve"><style>.st0{fill:#fff}</style><path class="st0" d="M152.8 36.5H22.2c-2.8 0-5 2.3-5 5v81.9c0 2.8 2.3 5 5 5h130.5c2.8 0 5-2.2 5-5V41.5c.1-2.7-2.2-5-4.9-5zm-41.5 71.7c0 5.2-4.2 9.4-9.4 9.4h-64c-5.2 0-9.4-4.2-9.4-9.4v-51c0-5.2 4.2-9.4 9.4-9.4H102c5.2 0 9.4 4.2 9.4 9.4v51zm23 9c-6.4 0-11.5-5.2-11.5-11.5 0-6.4 5.2-11.5 11.5-11.5 6.4 0 11.5 5.2 11.5 11.5 0 6.4-5.1 11.5-11.5 11.5zm14.8-41.6h-25.9v-7.2h25.9v7.2zm0-15.8h-25.9V47.5h25.9v12.3zm-51.8-1.4h-2.8c-1.9 0-3.4 1.5-3.4 3.4v41.6c0 1.9 1.5 3.4 3.4 3.4h2.8c1.9 0 3.4-1.5 3.4-3.4V61.8c.1-1.8-1.5-3.4-3.4-3.4z"/><path class="st0" d="M100.8 61.8v41.6c0 1.9-1.5 3.4-3.4 3.4h-2.8c-1.9 0-3.4-1.5-3.4-3.4V61.8c0-1.9 1.5-3.4 3.4-3.4h2.8c1.8 0 3.4 1.6 3.4 3.4z"/></svg>