<svg xmlns="http://www.w3.org/2000/svg" width="141" height="93"><style>.shp0{fill:#fff}</style><g id="Layer"><path id="Layer" fill-rule="evenodd" class="shp0" d="M140.7 5.5v81.9c0 2.8-2.2 5-5 5H5.2c-2.7 0-5-2.2-5-5V5.5c0-2.7 2.2-5 5-5h130.6c2.7 0 5 2.3 4.9 5zM94.4 72.2v-51c0-5.2-4.2-9.4-9.4-9.4H20.9c-5.2 0-9.4 4.2-9.4 9.4v51c0 5.2 4.2 9.4 9.4 9.4h64c5.2 0 9.4-4.2 9.4-9.4h.1zm34.4-2.5c0-6.3-5.1-11.5-11.5-11.5-6.3 0-11.5 5.1-11.5 11.5 0 6.3 5.1 11.5 11.5 11.5s11.5-5.1 11.5-11.5zm3.3-37.3h-25.9v7.2h25.9v-7.2zm0-20.9h-25.9v12.3h25.9V11.5zM83.7 25.8v41.6c0 1.9-1.5 3.4-3.4 3.4h-2.8c-1.9 0-3.4-1.5-3.4-3.4V25.8c0-1.9 1.5-3.4 3.4-3.4h2.8c1.9 0 3.5 1.6 3.4 3.4z"/><path id="Layer" class="shp0" d="M83.8 25.8v41.6c0 1.9-1.5 3.4-3.4 3.4h-2.8c-1.9 0-3.4-1.5-3.4-3.4V25.8c0-1.9 1.5-3.4 3.4-3.4h2.8c1.8 0 3.4 1.6 3.4 3.4z"/></g></svg>