<svg xmlns="http://www.w3.org/2000/svg" width="82" height="106"><style/><path id="Layer" fill-rule="evenodd" d="M81.6 87.5c0 10.1-18.2 18.2-40.7 18.2C18.4 105.7.2 97.5.2 87.5c0-8.6 13.6-15.9 31.8-17.7-7.3-11.3-16.3-26.1-18.2-32.7C10.6 25.7 8.6 1 41.8.5 74 0 73.1 25.7 69.9 37.1 68 43.8 58.8 58.6 51.5 69.9c17.4 2.1 30.1 9.2 30.1 17.6zM42.1 40.3c6 0 10.8-5.2 10.8-11.6 0-6.4-4.9-11.6-10.8-11.6-6 0-10.8 5.2-10.8 11.6 0 6.4 4.8 11.6 10.8 11.6zM77 84.6c0-6.5-11.1-12-26.2-13.7-4.9 7.4-8.8 13.1-9 13.4 0 0-4-5.9-9.1-13.7-16.5 1.4-28.8 7.2-28.8 14 0 7.9 16.3 14.3 36.5 14.3S77 92.5 77 84.6z" fill="#000"/></svg>