<svg xmlns="http://www.w3.org/2000/svg" width="97" height="106"><style/><path id="Layer" fill-rule="evenodd" d="M96.3 35.9v31.6c0 7.3-5.7 13.3-13 13.8v15.4c0 2.2-.9 4.4-2.5 6-1.6 1.6-3.7 2.5-6 2.5H22.1c-4.7 0-8.5-3.8-8.5-8.5V81.2c-7.2-.6-13-6.5-13-13.8V36c0-7.3 5.7-13.3 13-13.8v-8.4c0-7.6 6.3-13.8 14-13.8h41.8c7.7 0 14 6.2 14 13.8v8.4c7.2.5 13 6.5 12.9 13.7zM23.6 22.2h49.8v-8.4c0-2.1-1.8-3.8-4-3.8H27.6c-2.2 0-4 1.7-4 3.8v8.4zM73.4 63H23.6v32h49.8V63zm13-27.1c0-2.1-1.8-3.8-4-3.8H14.6c-2.2 0-4 1.7-4 3.8v31.4c0 1.8 1.3 3.3 3 3.7v-9.5c0-4.7 3.8-8.5 8.5-8.5h52.8c4.7 0 8.5 3.8 8.5 8.5V71c1.7-.4 3-1.9 3-3.7V35.9z" fill="#fff"/></svg>