<svg xmlns="http://www.w3.org/2000/svg" viewBox="0 0 175 165"><path d="M122.4 52.2v-8.4c0-7.6-6.3-13.8-14-13.8H66.6c-7.7 0-14 6.2-14 13.8v8.4c-7.3.5-13 6.5-13 13.8v31.4c0 7.3 5.8 13.2 13 13.8v15.5c0 4.7 3.8 8.5 8.5 8.5h52.7c2.3 0 4.4-.9 6-2.5 1.6-1.6 2.5-3.8 2.5-6v-15.4c7.3-.5 13-6.5 13-13.8V65.9c.1-7.2-5.7-13.2-12.9-13.7zm-59.8-8.4c0-2.1 1.8-3.8 4-3.8h41.8c2.2 0 4 1.7 4 3.8v8.4H62.6v-8.4zm49.8 81.2H62.6V93h49.8v32zm13-27.7c0 1.8-1.3 3.3-3 3.7v-9.5c0-4.7-3.8-8.5-8.5-8.5H61.1c-4.7 0-8.5 3.8-8.5 8.5v9.5c-1.7-.4-3-1.9-3-3.7V65.9c0-2.1 1.8-3.8 4-3.8h67.8c2.2 0 4 1.7 4 3.8v31.4z" fill="#fff"/></svg>