<svg xmlns="http://www.w3.org/2000/svg" width="135" height="99"><style>.shp0{fill:#fff}</style><g id="Layer"><path id="Layer" class="shp0" d="M97 74c-1.7 2.3-5.3 2.6-8.1.6-.4-.3-.7-.6-1-.9l-.1.1c-5.1-4.7-12.4-7.6-20.5-7.6-7.7 0-14.7 2.7-19.7 7l-.2-.2c-.4.4-.8.7-1.2 1-2.8 1.9-6.4 1.6-8-.8-1.5-2.1-.9-5.1 1.2-7.1l.1-.1c.2-.2.3-.3.5-.4 7.1-5.9 16.7-9.4 27.3-9.4 11.3 0 21.4 4.1 28.6 10.6l-.1.1c2.3 1.9 2.8 5 1.2 7.1zm16.2-19.2c-1.8 1-4 .7-5.6-.7-10.2-10.5-24.4-16.9-40.1-16.9-15.3 0-29.2 6.1-39.3 16.1-1.7 2.1-4.5 2.8-6.6 1.4-2.2-1.5-2.7-4.6-1.1-7 .3-.4.5-.7.9-1 11.8-11.8 28.2-19 46.2-19 17.8 0 34 7.1 45.8 18.6l1.1 1.1c.1.2.2.3.4.5 1.3 2.5.6 5.6-1.7 6.9z"/><path id="Layer" class="shp0" d="M132.9 36.1c-2 1.5-4.8 1.3-6.9-.3l-.1.1C111 20.7 90.3 11.3 67.4 11.3c-22.4 0-42.7 9-57.5 23.6-1 1.2-2.6 2-4.3 2-3.1 0-5.6-2.5-5.6-5.6 0-1.7.7-3.2 1.9-4.2 16.8-16.7 40-27 65.6-27 25.2 0 48 10 64.8 26.3l1.5 1.5v.1c1.9 2.7 1.5 6.2-.9 8.1zM67.8 98.9c-5.36 0-9.7-4.34-9.7-9.7 0-5.36 4.34-9.7 9.7-9.7 5.36 0 9.7 4.34 9.7 9.7 0 5.36-4.34 9.7-9.7 9.7z"/></g></svg>