<svg xmlns="http://www.w3.org/2000/svg" width="140" height="140"><style>.shp0{fill:#000}</style><g id="Layer"><path id="Layer" class="shp0" d="M60.2 59.2L80.5 72l-20.1 9.5-.2-22.3z"/><path id="Layer" fill-rule="evenodd" class="shp0" d="M139.8 31.6V109c0 17.1-14 31.1-31.1 31.1H32C14.9 140.1.9 126.1.9 109V31.6C.9 14.5 14.9.5 32 .5h76.7c17.1 0 31.1 14 31.1 31.1zm-32.4 25.2c0-7.7-6.3-13.9-13.9-13.9H45.9c-7.7 0-13.9 6.3-13.9 13.9v28.4c0 7.7 6.3 13.9 13.9 13.9h47.6c7.7 0 13.9-6.3 13.9-13.9V56.8z"/><path id="Layer" class="shp0" d="M80.5 72l-20.1 9.5-.2-22.3L80.5 72z"/><path id="Layer" class="shp0" d="M80.5 72l-20.1 9.5-.2-22.3L80.5 72z"/></g></svg>